<svg xmlns="http://www.w3.org/2000/svg" xmlns:xlink="http://www.w3.org/1999/xlink" width="1500" height="1500" viewBox="0 0 1500 1500">
  <defs>
    <clipPath id="clip-undraw_having_fun_re_vj4h">
      <rect width="1500" height="1500"/>
    </clipPath>
  </defs>
  <g id="undraw_having_fun_re_vj4h" clip-path="url(#clip-undraw_having_fun_re_vj4h)">
    <rect width="1500" height="1500" fill="#fff"/>
    <path id="Path_6465" data-name="Path 6465" d="M358.8,352.96a41.955,41.955,0,0,1-6.46.151,1.409,1.409,0,0,0-1.551,1.223l-4.121,30.911a12.549,12.549,0,0,1-2.659,6.124,13.346,13.346,0,0,0-3,10.2v52.507s-.266,7,5.113,7a77.766,77.766,0,0,0,19.39,0s4.307-.815,4.307-7.276V402.1a12.646,12.646,0,0,0-2.659-10.28,12.867,12.867,0,0,1-2.579-6.088l-4.28-31.558a1.409,1.409,0,0,0-1.5-1.214Z" transform="translate(233.309 357.584)" fill="#fff"/>
    <path id="Path_6466" data-name="Path 6466" d="M355.974,462.747a78.489,78.489,0,0,1-9.738-.606,5.234,5.234,0,0,1-3.876-1.588c-2.189-2.273-2.067-6.168-2.061-6.332V401.8a14.28,14.28,0,0,1,3.21-10.822,11.655,11.655,0,0,0,2.461-5.679l4.12-30.9a2.308,2.308,0,0,1,2.525-1.987,40.9,40.9,0,0,0,6.275-.151l.025,0a2.3,2.3,0,0,1,2.44,1.978l4.281,31.559a11.993,11.993,0,0,0,2.4,5.663,13.5,13.5,0,0,1,2.845,10.9V453.98c0,7.112-4.978,8.137-5.028,8.147a79.062,79.062,0,0,1-9.879.62ZM352.4,354.171a.531.531,0,0,0-.551.453l-4.122,30.916a13.444,13.444,0,0,1-2.847,6.563,12.511,12.511,0,0,0-2.814,9.534l.007.109v52.507c0,.065-.1,3.349,1.57,5.074a3.5,3.5,0,0,0,2.657,1.042l.111.007a76.966,76.966,0,0,0,19.169,0c.084-.021,3.531-.807,3.531-6.4l.014-51.86a11.741,11.741,0,0,0-2.472-9.56,13.791,13.791,0,0,1-2.771-6.525L359.6,354.472a.526.526,0,0,0-.546-.45,43.023,43.023,0,0,1-6.581.152.7.7,0,0,0-.073,0Z" transform="translate(233.131 357.405)" fill="#3f3d56"/>
    <path id="Path_6467" data-name="Path 6467" d="M118.3,261.989h6.531a9.793,9.793,0,0,1,9.793,9.792v24.574a9.792,9.792,0,0,1-9.793,9.793H118.3a9.793,9.793,0,0,1-9.793-9.793V271.781a9.793,9.793,0,0,1,9.793-9.793Z" transform="translate(467.31 498.103)" fill="#01c9fc"/>
    <path id="Path_6468" data-name="Path 6468" d="M20.433,638.979H41.726l10.13-82.133H20.429Z" transform="translate(445.098 572.464)" fill="#f68389"/>
    <path id="Path_6469" data-name="Path 6469" d="M249.773,747.425l41.935,0h0a26.725,26.725,0,0,1,26.724,26.722v.87l-68.659,0Z" transform="translate(210.326 457.066)" fill="#2f2e41"/>
    <path id="Path_6470" data-name="Path 6470" d="M243.976,518.7s-9.228,10.432,6.052,51.1l-2.692,222.969,49.521-.966,10.885-108.763,19.819-158.716Z" transform="translate(208.168 399.383)" fill="#028ffa"/>
    <path id="Path_6471" data-name="Path 6471" d="M346.446,597.132l-.542-.083c-63.351-9.662-111.156-18.924-111.632-19.017l-.594-.115,16.607-40.392c-.131-4.221-3.726-122.744,3.156-156.8,6.662-32.965,38.064-38.368,41.642-38.876l3.593-11.905,45.394,23.621,7.917,27.248,1.608,74.679Z" transform="translate(206.267 351.781)" fill="#028ffa"/>
    <path id="Path_6472" data-name="Path 6472" d="M368.756,420.57a14.816,14.816,0,0,0-10.885,4.762l-76.3,0-27.948,5.949,4.589,35.392,99.419-21.381a14.865,14.865,0,1,0,11.122-24.719Z" transform="translate(211.298 374.636)" fill="#9f616a"/>
    <ellipse id="Ellipse_978" data-name="Ellipse 978" cx="36.772" cy="36.772" rx="36.772" ry="36.772" transform="translate(498.544 665.341) rotate(-61.337)" fill="#f68389"/>
    <path id="Path_6473" data-name="Path 6473" d="M294.555,285.813l-1.783-3.588,8.97-4.457s9.9-16.1,27.8-11.576,25.962,7.233,25.962,7.233l8.947,4.5-4.491,4.468,8.056,2.708-5.382,2.674,6.262,3.6-3.371,18.451s-5.6-13.995-16.363-8.647-30.453-2.765-30.453-2.765l-17.105,33.1s-3.529-11.6-9.821-8.51C291.786,323.011,275.712,297.412,294.555,285.813Z" transform="translate(219.31 335.5)" fill="#2f2e41"/>
    <path id="Path_6474" data-name="Path 6474" d="M259.863,492.714l-8.726-25.955-2.111-86.519,3.718-12.275a34.3,34.3,0,1,1,64.773,22.41L297.59,441.438,298.6,443.4l43.172-.35,15.335,27.6Z" transform="translate(210.138 355.227)" fill="#028ffa"/>
    <path id="Path_6475" data-name="Path 6475" d="M606.835,466.738a13.287,13.287,0,0,0,2.123-20.264l21.28-42.152-24.374,2.827-16.471,39.595a13.359,13.359,0,0,0,17.442,19.994Z" transform="translate(295.105 370.538)" fill="#f68389"/>
    <path id="Path_6476" data-name="Path 6476" d="M510.94,576.974H491.762L482.638,503l28.3,0Z" transform="translate(561.664 558.884)" fill="#f68389"/>
    <path id="Path_6477" data-name="Path 6477" d="M755.278,712.466l-61.838,0v-.782a24.07,24.07,0,0,1,24.067-24.069h0l37.769,0Z" transform="translate(322.216 441.982)" fill="#2f2e41"/>
    <path id="Path_6478" data-name="Path 6478" d="M427.24,576.974H408.061L398.938,503l28.306,0Z" transform="translate(540.555 558.884)" fill="#f68389"/>
    <path id="Path_6479" data-name="Path 6479" d="M667.831,712.466l-61.838,0v-.782a24.07,24.07,0,0,1,24.067-24.069h37.772Z" transform="translate(300.162 441.982)" fill="#2f2e41"/>
    <path id="Path_6480" data-name="Path 6480" d="M427.184,312.572l-18.772,43.246L392.928,604.385l39.107-1.564,10.681-118.494L475.665,378.79l18.942,117.657,7.822,103.245,32.359,1.4,12.9-288.521Z" transform="translate(539.039 510.86)" fill="#028ffa"/>
    <path id="Path_6481" data-name="Path 6481" d="M750.655,272.694l-54.406,1.361-31.942,16.4-1.753,120.979-19.922,83.526s124.473,8.567,141.68-3.948l-20.336-95.422,27.275-103.124Z" transform="translate(309.402 337.342)" fill="#fec230"/>
    <path id="Path_6482" data-name="Path 6482" d="M685.624,289.166l-5.065-3.421s-20.983,6.289-27.185,34.268c0,0-4.746,14.037-6.828,23.688-2.388,11.07-55.129,112.749-55.129,112.749l31.577,9.059,57.891-93.621Z" transform="translate(296.486 340.634)" fill="#fec230"/>
    <path id="Path_6483" data-name="Path 6483" d="M761.7,479.939a13.287,13.287,0,0,1,3.547-20.063l-8.831-46.386,22.649,9.439,4.914,42.6A13.359,13.359,0,0,1,761.7,479.939Z" transform="translate(338.099 372.85)" fill="#ffb7b7"/>
    <path id="Path_6484" data-name="Path 6484" d="M757.807,290.017l5.811-1.891s18.435,11.831,16.681,40.436c0,0,.691,14.8.031,24.653-.757,11.3,9.386,123.58,9.386,123.58h-32.85l-14.079-101.68Z" transform="translate(334.661 341.234)" fill="#fec230"/>
    <path id="Path_6485" data-name="Path 6485" d="M754.756,239.756a37.715,37.715,0,1,1-37.715-37.715h0a37.621,37.621,0,0,1,37.715,37.527Q754.757,239.662,754.756,239.756Z" transform="translate(318.656 319.524)" fill="#f68389"/>
    <path id="Path_6486" data-name="Path 6486" d="M679.752,193.764c4.418-9.5,12.968-7.622,20.446-4.4,9.469-2.1,18.475-8.389,28.677-4.67,10.05,14.617,43.792,10.316,36.613,34.113-.009,5.7,10.73,2.383,8.855,11.722,5.689,17.972-20.534,52.01-35.589,44.842,3.723-6.823,12.228-22.322-.672-23.859-27.749,25.82-2.863-49.167-37.729-27.359C688.809,234.716,673,204.331,679.752,193.764Z" transform="translate(318.355 314.858)" fill="#2f2e41"/>
    <path id="Path_6487" data-name="Path 6487" d="M767.965,493.354a12.534,12.534,0,0,0,15-12.014l94.7-89.134-21.308-17L769.81,468.4a12.6,12.6,0,0,0-1.846,24.959Z" transform="translate(338.439 363.196)" fill="#f68389"/>
    <path id="Path_6488" data-name="Path 6488" d="M846.783,410.1l-18.424-21.591a5.62,5.62,0,0,1,1.293-8.411l23.985-15.015a15.607,15.607,0,0,1,20.192,23.8l-18.537,21.26a5.62,5.62,0,0,1-8.51-.047Z" transform="translate(355.902 359.708)" fill="#fec230"/>
    <path id="Path_6489" data-name="Path 6489" d="M576.44,638.984H553.286L542.27,549.675h34.174Z" transform="translate(576.702 570.656)" fill="#f68389"/>
    <path id="Path_6490" data-name="Path 6490" d="M822.988,775.5l-74.658,0v-.944A29.06,29.06,0,0,1,777.387,745.5h0l45.6,0Z" transform="translate(336.059 456.58)" fill="#2f2e41"/>
    <path id="Path_6491" data-name="Path 6491" d="M724.247,638.984H701.094l-11.016-89.308h34.174Z" transform="translate(613.979 570.656)" fill="#f68389"/>
    <path id="Path_6492" data-name="Path 6492" d="M970.8,775.5l-74.658,0v-.944A29.06,29.06,0,0,1,925.195,745.5h0l45.6,0Z" transform="translate(373.335 456.58)" fill="#2f2e41"/>
    <path id="Path_6493" data-name="Path 6493" d="M940.444,458.891l23.339-86.23-30.278-17.019H891.243L874.8,373.228s-27.463,19.108-20.816,40.278l10.723,48.221-16.4,76.586L765.679,652.907,746.118,765.47l77,20.186,83.264-163.95,40.37,181.536,75.1-3.777-25.88-220.113S988.6,512.3,949.928,470.43Z" transform="translate(335.501 358.261)" fill="#028ffa"/>
    <path id="Path_6494" data-name="Path 6494" d="M949,527.487a12.534,12.534,0,0,0-1.606-19.152L929.289,386.167,903.3,394.374l26.018,117.662A12.6,12.6,0,0,0,949,527.487Z" transform="translate(375.14 365.959)" fill="#f68389"/>
    <path id="Path_6495" data-name="Path 6495" d="M934.569,411.176l-28.2,3.251a5.62,5.62,0,0,1-6.261-5.764l.913-28.283a15.607,15.607,0,1,1,31.02-3.485l7.309,27.243a5.62,5.62,0,0,1-4.785,7.037Z" transform="translate(374.336 360.124)" fill="#fec230"/>
    <path id="Path_6496" data-name="Path 6496" d="M841.146,353.181V316.849a48.685,48.685,0,1,1,97.37,0v36.332a6.547,6.547,0,0,1-6.54,6.54H847.686A6.547,6.547,0,0,1,841.146,353.181Z" transform="translate(359.466 336.199)" fill="#2f2e41"/>
    <ellipse id="Ellipse_979" data-name="Ellipse 979" cx="35.694" cy="35.694" rx="35.694" ry="35.694" transform="translate(1190.848 645.18) rotate(-28.663)" fill="#f68389"/>
    <path id="Path_6497" data-name="Path 6497" d="M831.948,317.121a38.556,38.556,0,0,1,38.512-38.512h7.267a38.555,38.555,0,0,1,38.512,38.512v.727H900.882l-5.238-14.666L894.6,317.848h-7.936l-2.643-7.4-.529,7.4H831.948Z" transform="translate(357.146 338.834)" fill="#2f2e41"/>
    <path id="Path_6498" data-name="Path 6498" d="M869.485,357.925a6.443,6.443,0,0,1-.512-6.841c7.7-14.646,18.482-41.71,4.171-58.4l-1.029-1.2h41.546V353.86l-37.741,6.659a6.674,6.674,0,0,1-1.157.1,6.513,6.513,0,0,1-5.278-2.7Z" transform="translate(366.295 342.081)" fill="#2f2e41"/>
    <path id="Path_6499" data-name="Path 6499" d="M584.493,373.958a14.385,14.385,0,0,0-1.445,1.742l-67.693-1.656-7.9-14.43-23.336,9.072,11.5,26.9a10.923,10.923,0,0,0,11.354,6.552l76.48-9.239a14.332,14.332,0,1,0,1.039-18.944Z" transform="translate(269.427 359.262)" fill="#f68389"/>
    <path id="Path_6500" data-name="Path 6500" d="M154.375,586.127h22.258l10.589-85.852h-32.85Z" transform="translate(478.877 558.197)" fill="#f68389"/>
    <path id="Path_6501" data-name="Path 6501" d="M383.519,693.573l43.834,0h0A27.935,27.935,0,0,1,455.288,721.5v.909l-71.768,0Z" transform="translate(244.056 443.484)" fill="#2f2e41"/>
    <path id="Path_6502" data-name="Path 6502" d="M322.571,586.941l20.468-8.744-23.988-83.111-30.208,12.906Z" transform="translate(512.79 556.888)" fill="#f68389"/>
    <path id="Path_6503" data-name="Path 6503" d="M543.007,699.347l40.309-17.221h0A27.936,27.936,0,0,1,619.98,696.84l.357.835-66,28.195Z" transform="translate(284.278 440.03)" fill="#2f2e41"/>
    <path id="Path_6504" data-name="Path 6504" d="M259.839,256.029l1.609,26.082L214.4,287.146l-49.229,5.268,14.489-39.6Z" transform="translate(481.601 495.788)" fill="#f68389"/>
    <path id="Path_6505" data-name="Path 6505" d="M495.375,420.281c-.533-.209-53.673-20.88-86.313-3.978l-.8.416-6.512-32.051-3.71-68.908,24.144-11.408,6.647-14.89,45.278-2.679,9.3,12.76,31.679,10.382L496.157,420.59Z" transform="translate(247.717 340.895)" fill="#b0e0f6"/>
    <path id="Path_6506" data-name="Path 6506" d="M477.1,353.367l5.6-44.005,12.752-3.881.215.079c.294.108,7.225,2.761,9.122,12.356,1.821,9.21,15.535,66.52,15.674,67.1l.137.573L488.378,398.48Z" transform="translate(267.656 345.611)" fill="#b0e0f6"/>
    <path id="Path_6507" data-name="Path 6507" d="M575.129,759.659l42.893-8.8L549.466,561.689,526,497.166S511.122,445.431,504.4,425.41l-4.058-26.863-96.052,10.632s-26.827,39.4-18.677,103.615L381.925,754.16l42.894,2.2,35.928-243.43L523.8,646.376s19.875,56.946,34.095,69.289Z" transform="translate(243.654 369.081)" fill="#028ffa"/>
    <path id="Path_6508" data-name="Path 6508" d="M446.1,429.738a14.371,14.371,0,0,0-2.26.124L399.031,379.1l5.213-15.6-22.518-10.944-11.912,26.724a10.923,10.923,0,0,0,2.916,12.781l58.774,49.8a14.332,14.332,0,1,0,14.6-12.119Z" transform="translate(240.361 357.482)" fill="#f68389"/>
    <path id="Path_6509" data-name="Path 6509" d="M375.9,370.826l17.518-49.9c1.969-5.882,4.436-9.456,7.333-10.622a4.524,4.524,0,0,1,3.635-.034l7.855,9.924,7.291,30.627-18.693,43.969Z" transform="translate(242.133 346.727)" fill="#b0e0f6"/>
    <path id="Path_6510" data-name="Path 6510" d="M485.186,295.36h-76.9a5.974,5.974,0,0,1-5.967-5.967V256.245a44.419,44.419,0,0,1,88.838,0v33.148A5.973,5.973,0,0,1,485.186,295.36Z" transform="translate(248.796 321.992)" fill="#2f2e41"/>
    <ellipse id="Ellipse_980" data-name="Ellipse 980" cx="32.567" cy="32.567" rx="32.567" ry="32.567" transform="translate(672.091 551.447)" fill="#f68389"/>
    <path id="Path_6511" data-name="Path 6511" d="M497.142,257.156H450.116l-.482-6.751-2.411,6.751h-7.241l-.956-13.381-4.779,13.381H420.237v-.663a35.177,35.177,0,0,1,35.137-35.137H462a35.177,35.177,0,0,1,35.137,35.137Z" transform="translate(253.316 324.395)" fill="#2f2e41"/>
    <path id="Path_6512" data-name="Path 6512" d="M450.939,296.182a6.1,6.1,0,0,1-1.056-.093l-34.434-6.076V233.1h37.905l-.938,1.094c-13.057,15.228-3.22,39.919,3.806,53.282a5.878,5.878,0,0,1-.467,6.241A5.943,5.943,0,0,1,450.939,296.182Z" transform="translate(252.108 327.358)" fill="#2f2e41"/>
    <path id="Path_6513" data-name="Path 6513" d="M776.8,392.721a41.952,41.952,0,0,1-6.461.151,1.409,1.409,0,0,0-1.551,1.223l-4.121,30.911a12.55,12.55,0,0,1-2.659,6.124,13.347,13.347,0,0,0-3,10.2v52.507s-.266,7,5.113,7a77.764,77.764,0,0,0,19.39,0s4.307-.815,4.307-7.276v-51.7a12.646,12.646,0,0,0-2.659-10.28,12.868,12.868,0,0,1-2.579-6.088L778.3,393.935A1.409,1.409,0,0,0,776.8,392.721Z" transform="translate(338.725 367.611)" fill="#fff"/>
    <path id="Path_6514" data-name="Path 6514" d="M773.974,502.507a78.494,78.494,0,0,1-9.737-.606,5.234,5.234,0,0,1-3.877-1.588c-2.189-2.274-2.067-6.168-2.061-6.332v-52.42a14.28,14.28,0,0,1,3.21-10.822,11.657,11.657,0,0,0,2.461-5.679l4.12-30.9a2.308,2.308,0,0,1,2.526-1.987,40.892,40.892,0,0,0,6.276-.151l.025,0a2.3,2.3,0,0,1,2.44,1.978l4.281,31.559a11.994,11.994,0,0,0,2.4,5.663,13.5,13.5,0,0,1,2.845,10.9V493.74c0,7.112-4.978,8.137-5.028,8.147a79.08,79.08,0,0,1-9.879.62ZM770.4,393.931a.531.531,0,0,0-.551.453L765.726,425.3a13.444,13.444,0,0,1-2.847,6.563,12.512,12.512,0,0,0-2.814,9.534l.007.109v52.507c0,.065-.1,3.349,1.57,5.074a3.5,3.5,0,0,0,2.657,1.042l.111.007a76.968,76.968,0,0,0,19.169,0c.084-.021,3.531-.807,3.531-6.4l.014-51.86a11.741,11.741,0,0,0-2.472-9.56,13.789,13.789,0,0,1-2.77-6.525L777.6,394.232a.526.526,0,0,0-.546-.45,43.024,43.024,0,0,1-6.581.152A.691.691,0,0,0,770.4,393.931Z" transform="translate(338.548 367.432)" fill="#3f3d56"/>
    <path id="Path_6515" data-name="Path 6515" d="M536.3,301.749h6.531a9.793,9.793,0,0,1,9.793,9.793v24.574a9.793,9.793,0,0,1-9.793,9.792H536.3a9.792,9.792,0,0,1-9.792-9.792V311.542a9.792,9.792,0,0,1,9.793-9.793Z" transform="translate(572.726 508.13)" fill="#01c9fc"/>
    <path id="Path_6516" data-name="Path 6516" d="M599.8,358.721a41.964,41.964,0,0,1-6.46.151,1.409,1.409,0,0,0-1.551,1.223l-4.121,30.911a12.55,12.55,0,0,1-2.659,6.124,13.346,13.346,0,0,0-3,10.2v52.507s-.266,7,5.113,7a77.762,77.762,0,0,0,19.39,0s4.307-.815,4.307-7.276v-51.7a12.646,12.646,0,0,0-2.659-10.28,12.869,12.869,0,0,1-2.579-6.088l-4.28-31.558A1.409,1.409,0,0,0,599.8,358.721Z" transform="translate(294.088 359.037)" fill="#fff"/>
    <path id="Path_6517" data-name="Path 6517" d="M596.974,468.507a78.5,78.5,0,0,1-9.737-.606,5.234,5.234,0,0,1-3.877-1.588c-2.189-2.273-2.067-6.168-2.061-6.332v-52.42a14.28,14.28,0,0,1,3.21-10.822,11.656,11.656,0,0,0,2.461-5.679l4.12-30.9a2.308,2.308,0,0,1,2.526-1.987,40.9,40.9,0,0,0,6.275-.151l.025,0a2.3,2.3,0,0,1,2.44,1.978l4.281,31.559a11.993,11.993,0,0,0,2.4,5.663,13.5,13.5,0,0,1,2.845,10.9V459.74c0,7.112-4.978,8.137-5.028,8.147a79.039,79.039,0,0,1-9.879.62ZM593.4,359.931a.531.531,0,0,0-.551.453L588.726,391.3a13.445,13.445,0,0,1-2.847,6.563,12.511,12.511,0,0,0-2.814,9.534l.007.109v52.507c0,.065-.1,3.349,1.57,5.074a3.5,3.5,0,0,0,2.657,1.042l.111.007a76.964,76.964,0,0,0,19.169,0c.084-.021,3.531-.807,3.531-6.4l.014-51.86a11.741,11.741,0,0,0-2.472-9.56,13.79,13.79,0,0,1-2.77-6.525L600.6,360.232a.526.526,0,0,0-.546-.45,43.033,43.033,0,0,1-6.581.152.689.689,0,0,0-.073,0Z" transform="translate(293.909 358.858)" fill="#3f3d56"/>
    <path id="Path_6518" data-name="Path 6518" d="M359.3,267.749h6.531a9.792,9.792,0,0,1,9.793,9.793v24.574a9.792,9.792,0,0,1-9.793,9.793H359.3a9.792,9.792,0,0,1-9.792-9.792V277.542A9.793,9.793,0,0,1,359.3,267.749Z" transform="translate(528.088 499.556)" fill="#01c9fc"/>
    <path id="Path_6519" data-name="Path 6519" d="M569.8,322.721a41.951,41.951,0,0,1-6.46.151,1.409,1.409,0,0,0-1.551,1.223l-4.121,30.911a12.549,12.549,0,0,1-2.659,6.124,13.346,13.346,0,0,0-3,10.2v52.507s-.266,7,5.113,7a77.758,77.758,0,0,0,19.39,0s4.307-.815,4.307-7.276v-51.7a12.646,12.646,0,0,0-2.659-10.28,12.867,12.867,0,0,1-2.579-6.088l-4.28-31.558A1.409,1.409,0,0,0,569.8,322.721Z" transform="translate(286.522 349.958)" fill="#fff"/>
    <path id="Path_6520" data-name="Path 6520" d="M566.974,432.507a78.486,78.486,0,0,1-9.738-.606,5.234,5.234,0,0,1-3.877-1.588c-2.189-2.274-2.067-6.168-2.061-6.332v-52.42a14.28,14.28,0,0,1,3.21-10.822,11.655,11.655,0,0,0,2.461-5.679l4.12-30.9a2.308,2.308,0,0,1,2.526-1.987,40.9,40.9,0,0,0,6.276-.151l.025,0a2.3,2.3,0,0,1,2.44,1.978l4.281,31.559a11.993,11.993,0,0,0,2.4,5.663,13.5,13.5,0,0,1,2.845,10.9V423.74c0,7.112-4.978,8.137-5.028,8.147A79.076,79.076,0,0,1,566.974,432.507ZM563.4,323.931a.532.532,0,0,0-.551.454L558.726,355.3a13.444,13.444,0,0,1-2.847,6.563,12.511,12.511,0,0,0-2.814,9.534l.007.109v52.507c0,.065-.1,3.349,1.57,5.074a3.5,3.5,0,0,0,2.657,1.042l.111.007a76.963,76.963,0,0,0,19.169,0c.084-.021,3.531-.807,3.531-6.4l.014-51.86a11.74,11.74,0,0,0-2.472-9.56,13.79,13.79,0,0,1-2.77-6.525L570.6,324.232a.526.526,0,0,0-.546-.45,43.032,43.032,0,0,1-6.581.152.7.7,0,0,0-.073,0Z" transform="translate(286.344 349.779)" fill="#3f3d56"/>
    <path id="Path_6521" data-name="Path 6521" d="M329.3,231.749h6.531a9.792,9.792,0,0,1,9.792,9.793v24.574a9.792,9.792,0,0,1-9.792,9.793H329.3a9.792,9.792,0,0,1-9.792-9.792V241.542A9.793,9.793,0,0,1,329.3,231.749Z" transform="translate(520.522 490.477)" fill="#01c9fc"/>
    <ellipse id="Ellipse_981" data-name="Ellipse 981" cx="31.305" cy="31.305" rx="31.305" ry="31.305" transform="translate(478.999 458.327)" fill="#dff1fd"/>
    <ellipse id="Ellipse_982" data-name="Ellipse 982" cx="31.305" cy="31.305" rx="31.305" ry="31.305" transform="translate(1200.262 432.031)" fill="#dff1fd"/>
    <ellipse id="Ellipse_983" data-name="Ellipse 983" cx="22.539" cy="22.539" rx="22.539" ry="22.539" transform="translate(850.9 528.45)" fill="#dff1fd"/>
    <g id="Group_135" data-name="Group 135" transform="translate(147.458 41.222)">
      <path id="Subtraction_4" data-name="Subtraction 4" d="M3.46,4.41A3.47,3.47,0,0,1,.13,0H6.792a3.5,3.5,0,0,1,.129.944A3.468,3.468,0,0,1,3.46,4.41Z" transform="translate(399 611.002)" fill="#2f2e41"/>
      <path id="Subtraction_5" data-name="Subtraction 5" d="M3.46,4.41A3.47,3.47,0,0,1,.13,0H6.792a3.5,3.5,0,0,1,.129.944A3.468,3.468,0,0,1,3.46,4.41Z" transform="translate(427.638 611.002)" fill="#2f2e41"/>
    </g>
    <g id="Group_191" data-name="Group 191" transform="translate(305.657 -24.209)">
      <path id="Subtraction_4-2" data-name="Subtraction 4" d="M3.46,4.411A3.471,3.471,0,0,1,.13,0H6.792a3.506,3.506,0,0,1,.129.944A3.468,3.468,0,0,1,3.46,4.411Z" transform="translate(399 611.002)" fill="#2f2e41"/>
      <path id="Subtraction_5-2" data-name="Subtraction 5" d="M3.46,4.411A3.471,3.471,0,0,1,.13,0H6.792a3.506,3.506,0,0,1,.129.944A3.468,3.468,0,0,1,3.46,4.411Z" transform="translate(427.648 611.002)" fill="#2f2e41"/>
    </g>
    <g id="Group_192" data-name="Group 192" transform="translate(597.422 -59.555)">
      <path id="Subtraction_4-3" data-name="Subtraction 4" d="M3.46,4.411A3.471,3.471,0,0,1,.13,0H6.792a3.506,3.506,0,0,1,.129.944A3.468,3.468,0,0,1,3.46,4.411Z" transform="translate(399 611.002)" fill="#2f2e41"/>
      <path id="Subtraction_5-3" data-name="Subtraction 5" d="M3.46,4.411A3.471,3.471,0,0,1,.13,0H6.792a3.506,3.506,0,0,1,.129.944A3.468,3.468,0,0,1,3.46,4.411Z" transform="translate(427.648 611.002)" fill="#2f2e41"/>
    </g>
    <g id="Group_193" data-name="Group 193" transform="translate(807.08 51.609)">
      <path id="Subtraction_4-4" data-name="Subtraction 4" d="M3.46,4.411A3.471,3.471,0,0,1,.13,0H6.792a3.506,3.506,0,0,1,.129.944A3.468,3.468,0,0,1,3.46,4.411Z" transform="translate(399 611.002)" fill="#2f2e41"/>
      <path id="Subtraction_5-4" data-name="Subtraction 5" d="M3.46,4.411A3.471,3.471,0,0,1,.13,0H6.792a3.506,3.506,0,0,1,.129.944A3.468,3.468,0,0,1,3.46,4.411Z" transform="translate(427.648 611.002)" fill="#2f2e41"/>
    </g>
    <path id="Path_6523" data-name="Path 6523" d="M202.8,460.226a6.5,6.5,0,0,0,6.5,6.5H219.9l1.891,3.427V622.226a6.5,6.5,0,0,0,13,0v-155.5H590.7l.1,155.5a6.5,6.5,0,0,0,13,0v-155.5h11.5a6.5,6.5,0,0,0,0-13h-406a6.5,6.5,0,0,0-6.5,6.5Z" transform="translate(-181.426 600.956)" fill="#b0e0f6"/>
    <path id="Path_6524" data-name="Path 6524" d="M351.7,552.127v-24a4,4,0,0,0-4-4h-91a4,4,0,0,0-4,4v24Z" transform="translate(-181.426 600.956)" fill="#b0e0f6"/>
    <rect id="Rectangle_1051" data-name="Rectangle 1051" width="99" height="31" transform="translate(71.271 1162.083)" fill="#b0e0f6"/>
    <path id="Path_6525" data-name="Path 6525" d="M252.7,601.127v24a4,4,0,0,0,4,4h91a4,4,0,0,0,4-4v-24Z" transform="translate(-181.426 600.956)" fill="#b0e0f6"/>
    <circle id="Ellipse_984" data-name="Ellipse 984" cx="3" cy="3" r="3" transform="translate(118.271 1137.083)" fill="#fff"/>
    <circle id="Ellipse_985" data-name="Ellipse 985" cx="3" cy="3" r="3" transform="translate(118.271 1177.083)" fill="#fff"/>
    <circle id="Ellipse_986" data-name="Ellipse 986" cx="3" cy="3" r="3" transform="translate(118.11 1216.236)" fill="#fff"/>
    <path id="Path_6526" data-name="Path 6526" d="M234,445.26v7.94a1.649,1.649,0,0,0,1.74,1.53h31.42a1.941,1.941,0,0,0,.86-.2l7.93-3.97a1.445,1.445,0,0,0,0-2.66l-7.93-3.97a1.941,1.941,0,0,0-.86-.2H235.74a1.649,1.649,0,0,0-1.74,1.53Z" transform="translate(-181.426 600.956)" fill="#01c9fc"/>
    <path id="Path_6527" data-name="Path 6527" d="M235.74,443.73H242v11h-6.26A1.649,1.649,0,0,1,234,453.2v-7.94a1.649,1.649,0,0,1,1.74-1.53Z" transform="translate(-181.426 600.956)" fill="#028ffa"/>
    <path id="Path_6528" data-name="Path 6528" d="M948.716,541.948a24.745,24.745,0,0,0,23.895-4.209c8.369-7.025,10.993-18.6,13.128-29.314l6.315-31.7-13.221,9.1c-9.508,6.547-19.23,13.3-25.814,22.786s-9.457,22.428-4.167,32.689" transform="translate(-605.08 421.286)" fill="#028ffa"/>
    <path id="Path_6529" data-name="Path 6529" d="M971.461,580.322c-1.338-9.747-2.714-19.62-1.776-29.472.834-8.75,3.5-17.3,8.937-24.3a40.428,40.428,0,0,1,10.372-9.4c1.037-.655,1.992.989.959,1.641a38.433,38.433,0,0,0-15.2,18.343c-3.31,8.418-3.841,17.6-3.271,26.538.345,5.408,1.076,10.781,1.813,16.146a.985.985,0,0,1-.664,1.169A.956.956,0,0,1,971.461,580.322Z" transform="translate(-626.694 421.286)" fill="#dff1fd"/>
    <path id="Path_6530" data-name="Path 6530" d="M920.958,563.074a18.215,18.215,0,0,0,15.871,8.191c8.034-.381,14.732-5.989,20.762-11.312l17.834-15.746-11.8-.565c-8.488-.406-17.2-.785-25.28,1.832s-15.541,8.917-17.019,17.286" transform="translate(-563.302 421.286)" fill="#028ffa"/>
    <path id="Path_6531" data-name="Path 6531" d="M952.719,585.926c6.441-11.4,13.912-24.063,27.261-28.111a30.42,30.42,0,0,1,11.466-1.184c1.217.1.913,1.982-.3,1.877a28.261,28.261,0,0,0-18.3,4.841c-5.159,3.512-9.177,8.394-12.577,13.572-2.083,3.172-3.948,6.477-5.814,9.779-.6,1.055-2.339.294-1.736-.774Z" transform="translate(-611.734 421.286)" fill="#dff1fd"/>
    <path id="Path_6532" data-name="Path 6532" d="M974.921,597.922a13.793,13.793,0,0,1,8.452-11.552v-6.589h11.051v6.8a13.786,13.786,0,0,1,7.992,11.345l2.6,30.206H972.323Z" transform="translate(-644.257 421.286)" fill="#028ffa"/>
    <path id="Path_6533" data-name="Path 6533" d="M138,629.193c0-.552.708-1,1.582-1l1459.177.364c.874,0,1.007.084,1.007.636s-.708,1-1.582,1H139.582C138.708,630.193,138,629.746,138,629.193Z" transform="translate(-127.281 606.756)" fill="#2f2e41"/>
    <path id="Path_6534" data-name="Path 6534" d="M377.282,452.651l3.283-1.382,2.252-16.456H412.8l2.441,16.389,2.937,1.468a.7.7,0,0,1-.312,1.321H377.552a.7.7,0,0,1-.271-1.34Z" transform="translate(-181.426 600.956)" fill="#e6e6e6"/>
    <path id="Path_6535" data-name="Path 6535" d="M321.079,434.084V413.311H474.212v20.772A2.918,2.918,0,0,1,471.3,437H323.991a2.918,2.918,0,0,1-2.912-2.918Z" transform="translate(-181.426 600.956)" fill="#01c9fc"/>
    <path id="Path_6536" data-name="Path 6536" d="M320.925,334.248a3.522,3.522,0,0,1,3.518-3.518H470.828a3.522,3.522,0,0,1,3.518,3.518v88.881H320.925Z" transform="translate(-181.426 600.956)" fill="#b0e0f6"/>
    <path id="Path_6537" data-name="Path 6537" d="M327.376,413.966V339.893a2.715,2.715,0,0,1,2.712-2.712H465.183a2.715,2.715,0,0,1,2.712,2.712v74.073a2.715,2.715,0,0,1-2.712,2.712H330.089a2.715,2.715,0,0,1-2.712-2.712Z" transform="translate(-181.426 600.956)" fill="#fff"/>
    <path id="Path_6545" data-name="Path 6545" d="M415.317,383.375l3.879-.308.482-5.6-3.769-.966a18.434,18.434,0,0,0-2.113-6.9l2.763-3.24-3.619-4.3-3.562,2.108a18.442,18.442,0,0,0-6.97-3.668l-.285-3.587-5.6-.482-.893,3.485a18.437,18.437,0,0,0-7.494,2.424l-3.15-2.686-4.3,3.619,2.169,3.664a18.43,18.43,0,0,0-3.272,6.484l-3.587.285-.482,5.6L379,380.2a18.44,18.44,0,0,0,2.2,7.1l-2.869,3.364,3.619,4.3,3.77-2.232a18.441,18.441,0,0,0,6.738,3.5l.309,3.879,5.6.482.967-3.77a18.445,18.445,0,0,0,7.236-2.3l3.334,2.843,4.3-3.619-2.252-3.8a18.44,18.44,0,0,0,3.366-6.576ZM396.3,393.464a14.991,14.991,0,1,1,16.221-13.651A14.991,14.991,0,0,1,396.3,393.464Z" transform="translate(-181.426 600.956)" fill="#b0e0f6"/>
  </g>
</svg>
